<svg xmlns="http://www.w3.org/2000/svg" width="152" height="64" viewBox="0 0 152 64" fill="none">
  <mask id="mask0_359_27135" style="mask-type:luminance" maskUnits="userSpaceOnUse" x="0" y="0" width="48" height="64">
    <path 
      d="M23.987 37.7927H36.8007V24.5878H23.987V37.7927ZM0.225586 0.420151V63.4553H47.3751V37.9173H36.8007V52.8664H10.9244V11.1336H36.9251V24.4632H47.4995V0.420151H0.225586Z" 
      fill="white">
    </path>
  </mask>
  <g mask="url(#mask0_359_27135)">
    <path 
      d="M78.7253 28.0759L26.8484 87L-31 35.9241L20.877 -23L78.7253 28.0759Z" 
      fill="url(#paint0_linear_359_27135)">
    </path>
  </g>
  <path 
    d="M63.0503 37.9173V21.598H65.0408V28.2005C65.414 27.5776 65.9116 27.0793 66.658 26.7056C67.4045 26.3318 68.0265 26.0827 68.8973 26.0827C69.8926 26.0827 70.7634 26.3318 71.6343 26.8301C72.3807 27.3284 73.0027 28.0759 73.5003 28.9479C73.8735 29.8199 74.1224 30.9411 74.1224 32.0623C74.1224 33.308 73.8735 34.3046 73.5003 35.1767C73.1271 36.0487 72.5051 36.7962 71.6343 37.2945C70.8878 37.7928 70.017 38.0419 68.8973 38.0419C68.0265 38.0419 67.2801 37.7928 66.658 37.419C66.036 37.0453 65.5384 36.547 65.0408 35.7995V37.6682H63.0503V37.9173ZM68.5241 36.2978C69.5194 36.2978 70.3902 35.9241 71.0122 35.1767C71.6343 34.4292 72.0075 33.4326 72.0075 32.0623C72.0075 30.692 71.6343 29.8199 71.0122 28.9479C70.3902 28.2005 69.5194 27.8267 68.5241 27.8267C67.5289 27.8267 66.658 28.2005 66.036 28.9479C65.414 29.6954 65.0408 30.692 65.0408 32.0623C65.0408 33.4326 65.414 34.3046 66.036 35.1767C66.658 35.9241 67.5289 36.2978 68.5241 36.2978Z" 
    fill="#606060">
  </path>
  <path 
    d="M81.4621 38.1665C80.3425 38.1665 79.3472 37.9173 78.4764 37.419C77.6055 36.9207 76.9835 36.1733 76.6103 35.3012C76.2371 34.4292 75.9883 33.308 75.9883 32.0623C75.9883 30.9411 76.2371 29.8199 76.6103 28.9479C77.1079 28.0759 77.73 27.3284 78.4764 26.8301C79.3472 26.3318 80.2181 26.0827 81.3377 26.0827C82.4574 26.0827 83.3282 26.3318 84.0746 26.8301C84.821 27.3284 85.4431 27.9513 85.8163 28.8233C86.1895 29.6954 86.4383 30.692 86.4383 31.8131V32.8097H77.9788C78.1032 33.9309 78.4764 34.9275 78.974 35.5504C79.596 36.1733 80.3425 36.547 81.4621 36.547C82.0841 36.547 82.7062 36.4224 83.2038 36.1733C83.7014 35.9241 83.9502 35.675 84.0746 35.3012H86.1895C85.9407 36.1733 85.3187 36.9207 84.4478 37.5436C83.7014 37.9173 82.5818 38.1665 81.4621 38.1665ZM81.3377 27.8267C80.3425 27.8267 79.596 28.0759 79.0984 28.6988C78.4764 29.3216 78.2276 30.0691 77.9788 31.0657H84.3234C84.3234 30.0691 83.9502 29.3216 83.4526 28.6988C83.0794 28.2005 82.3329 27.8267 81.3377 27.8267Z" 
    fill="#606060">
  </path>
  <path 
    d="M94.0272 38.1665C92.7832 38.1665 91.7879 37.9173 90.9171 37.419C90.0462 36.9207 89.4242 36.1733 88.9266 35.1767C88.429 34.3046 88.1802 33.1835 88.1802 31.9377C88.1802 30.692 88.429 29.6954 88.9266 28.6987C89.4242 27.8267 90.0462 27.0793 90.9171 26.4564C91.7879 25.9581 92.7832 25.7089 94.0272 25.7089C95.0225 25.7089 95.8933 25.9581 96.6397 26.3318C97.3862 26.7055 98.0082 27.2038 98.3814 27.9513C98.879 28.5742 99.1278 29.3216 99.1278 30.1937H95.6445C95.5201 29.8199 95.3957 29.4462 95.1469 29.1971C94.8981 28.9479 94.4004 28.8233 93.9028 28.8233C93.1564 28.8233 92.6588 29.0725 92.1611 29.6953C91.6635 30.3182 91.5391 31.0657 91.5391 32.0623C91.5391 33.0589 91.7879 33.8063 92.1611 34.4292C92.6588 35.0521 93.1564 35.3012 93.9028 35.3012C94.4004 35.3012 94.8981 35.1767 95.1469 34.9275C95.3957 34.6784 95.6445 34.3046 95.7689 33.9309H99.1278C99.1278 34.8029 98.7535 35.5504 98.256 36.1733C97.7584 36.9207 97.1363 37.419 96.3899 37.9173C95.6435 38.1665 94.7747 38.1665 94.0272 38.1665Z" 
    fill="#606060">
  </path>
  <defs>
    <linearGradient id="paint0_linear_359_27135" x1="-11.9296" y1="73.2416" x2="76.0915" y2="-14.8027" gradientUnits="userSpaceOnUse">
      <stop stop-color="#606060" stop-opacity="0.44"></stop>
      <stop offset="1" stop-color="#606060" stop-opacity="0"></stop>
    </linearGradient>
  </defs>
</svg>